<?xml version="1.0" standalone="no"?>
<!DOCTYPE svg PUBLIC "-//W3C//DTD SVG 20010904//EN"
 "http://www.w3.org/TR/2001/REC-SVG-20010904/DTD/svg10.dtd">
<svg version="1.0" xmlns="http://www.w3.org/2000/svg"
 width="1000.000000pt" height="1000.000000pt" viewBox="0 0 1000.000000 1000.000000"
 preserveAspectRatio="xMidYMid meet">
<metadata>
Created by potrace 1.15, written by Peter Selinger 2001-2017
</metadata>
<g transform="translate(0.000000,1000.000000) scale(0.100000,-0.100000)"
fill="#000000" stroke="none">
<path d="M4820 9644 c-204 -16 -598 -80 -850 -139 -773 -181 -1360 -470 -1940
-956 -1522 -1274 -2035 -3369 -1288 -5254 350 -883 972 -1656 1748 -2172 583
-388 1256 -638 1955 -727 410 -52 924 -44 1322 20 875 140 1708 530 2358 1104
148 131 366 356 498 515 885 1061 1238 2488 961 3885 -251 1267 -981 2334
-2054 3003 -607 378 -1318 624 -2030 702 -140 15 -568 27 -680 19z m685 -1029
c560 -59 1072 -232 1481 -501 185 -121 382 -286 485 -406 l51 -58 -2488 0
-2487 0 54 58 c188 200 406 351 759 528 395 197 775 311 1230 369 281 36 627
40 915 10z m-3155 -3675 l0 -1670 -274 0 c-252 0 -274 1 -279 18 -3 9 -44 112
-92 227 -237 575 -315 927 -315 1420 0 393 71 799 216 1248 52 158 138 399
150 419 3 4 138 8 300 8 l294 0 0 -1670z m4360 1115 l0 -555 -1660 0 -1660 0
0 555 0 555 1660 0 1660 0 0 -555z m1653 438 c401 -1034 388 -2000 -42 -3090
l-53 -133 -259 0 -259 0 0 1670 0 1670 284 0 283 0 46 -117z m-1655 -2630 l2
-593 -1660 0 -1660 0 0 595 0 595 1658 -2 1657 -3 3 -592z m742 -1625 c0 -7
-44 -44 -98 -83 -633 -456 -1284 -720 -1992 -807 -140 -17 -634 -17 -760 0
-583 80 -1002 234 -1489 547 -185 118 -491 334 -491 346 0 5 915 9 2415 9
1925 0 2415 -3 2415 -12z"/>
</g>
</svg>
